<?xml version="1.0" encoding="utf-8"?>
<!-- Generator: Adobe Illustrator 26.0.2, SVG Export Plug-In . SVG Version: 6.00 Build 0)  -->
<svg version="1.1" id="Слой_1" xmlns="http://www.w3.org/2000/svg" xmlns:xlink="http://www.w3.org/1999/xlink" x="0px" y="0px"
	 viewBox="0 0 595.28 841.89" style="enable-background:new 0 0 595.28 841.89;" xml:space="preserve">
<style type="text/css">
	.st0{fill:#131416;}
	.st1{fill:none;stroke:#68A99B;stroke-width:2;stroke-miterlimit:10;}
	.st2{opacity:0.77;fill:none;stroke:#68A99B;stroke-width:2;stroke-miterlimit:10;}
	.st3{fill:none;stroke:#FBDB4A;stroke-width:2;stroke-miterlimit:10;}
	.st4{opacity:0.67;fill:none;stroke:#FBDB4A;stroke-width:2;stroke-miterlimit:10;}
	.st5{opacity:0.46;fill:none;stroke:#FBDB4A;stroke-width:2;stroke-miterlimit:10;}
	.st6{fill:none;stroke:#D65988;stroke-width:2;stroke-miterlimit:10;}
	.st7{opacity:0.86;fill:none;stroke:#D65988;stroke-width:2;stroke-miterlimit:10;}
	.st8{opacity:0.6;fill:none;stroke:#D65988;stroke-width:2;stroke-miterlimit:10;}
	.st9{opacity:0.64;fill:none;stroke:#D65988;stroke-width:2;stroke-miterlimit:10;}
	.st10{opacity:0.09;fill:none;stroke:#D65988;stroke-width:2;stroke-miterlimit:10;}
	.st11{fill:none;stroke:#81589F;stroke-width:2;stroke-miterlimit:10;}
	.st12{opacity:0.51;}
	.st13{fill:none;stroke:#81589F;stroke-width:2;stroke-linecap:round;stroke-miterlimit:10;}
	.st14{opacity:0.1;}
</style>
<rect class="st0" width="595.28" height="841.89"/>
<rect x="-129" y="239.33" class="st1" width="17.33" height="17.33"/>
<path class="st1" d="M122.08,504.93l-15.1,2.34c-0.7,0.11-1.35-0.37-1.46-1.07l-2.34-15.1c-0.13-0.82,0.44-1.6,1.26-1.72l14.87-2.31
	c0.82-0.13,1.59,0.44,1.72,1.26l2.31,14.87C123.47,504.03,122.91,504.81,122.08,504.93z"/>
<path class="st2" d="M479.01,146.24l-8.19,1.27c-0.7,0.11-1.35-0.37-1.46-1.07l-1.27-8.19c-0.13-0.82,0.44-1.6,1.26-1.72l7.97-1.24
	c0.82-0.13,1.6,0.44,1.72,1.26l1.24,7.97C480.39,145.34,479.83,146.12,479.01,146.24z"/>
<path class="st1" d="M253.92,537.29l-16.9,2.62c-0.7,0.11-1.35-0.37-1.46-1.07l-2.62-16.9c-0.13-0.82,0.44-1.59,1.26-1.72
	l16.67-2.59c0.82-0.13,1.6,0.44,1.72,1.26l2.59,16.67C255.31,536.39,254.75,537.16,253.92,537.29z"/>
<circle class="st3" cx="-147.18" cy="248" r="9.67"/>
<circle class="st4" cx="204.07" cy="180.04" r="7.81"/>
<circle class="st5" cx="319" cy="668.03" r="7.47"/>
<circle class="st3" cx="389.81" cy="376.13" r="11.64"/>
<polygon class="st6" points="-81.71,256.57 -101.96,256.42 -92.02,239.73 "/>
<path class="st7" d="M383.28,582.72l-8.71-12.38c-0.19-0.27-0.01-0.64,0.31-0.66l14.47-1.2c0.32-0.03,0.55,0.29,0.42,0.59
	l-5.76,13.58C383.88,582.95,383.47,582.99,383.28,582.72z"/>
<path class="st8" d="M107.95,717.41l-7.08-10.06c-0.15-0.22-0.01-0.52,0.25-0.54l11.76-0.98c0.26-0.02,0.45,0.24,0.34,0.48
	l-4.68,11.04C108.45,717.6,108.11,717.63,107.95,717.41z"/>
<path class="st6" d="M79.49,425.41l-7.42,23.11c-0.11,0.33-0.54,0.43-0.77,0.16l-15.53-17.35c-0.23-0.26-0.1-0.66,0.23-0.75
	l22.96-5.76C79.29,424.74,79.6,425.07,79.49,425.41z"/>
<path class="st9" d="M349.01,243.33l-16.38-5.14c-0.81-0.25-1.04-1.29-0.41-1.86l12.19-11.07c0.61-0.56,1.6-0.26,1.81,0.54
	l4.18,16.2C350.62,242.84,349.83,243.59,349.01,243.33z"/>
<path class="st10" d="M77.25,34.84l-9.24-2.9c-0.46-0.14-0.59-0.73-0.23-1.05l6.88-6.24c0.35-0.31,0.9-0.15,1.02,0.3l2.36,9.14
	C78.16,34.57,77.71,34.99,77.25,34.84z"/>
<g>
	<line class="st11" x1="-111.67" y1="267.11" x2="-95.67" y2="283.11"/>
	<line class="st11" x1="-95.67" y1="267.11" x2="-111.67" y2="283.11"/>
</g>
<g class="st12">
	<line class="st13" x1="248.11" y1="626.89" x2="262.11" y2="640.89"/>
	<line class="st13" x1="262.11" y1="626.89" x2="248.11" y2="640.89"/>
</g>
<g class="st14">
	<line class="st13" x1="562.01" y1="755.67" x2="573.11" y2="757.87"/>
	<line class="st13" x1="568.66" y1="751.22" x2="566.46" y2="762.32"/>
</g>
<g>
	<line class="st13" x1="465.31" y1="426.7" x2="494.26" y2="444.14"/>
	<line class="st13" x1="488.5" y1="420.95" x2="471.06" y2="449.9"/>
</g>
<g>
	<line class="st13" x1="223.4" y1="328.04" x2="241.99" y2="339.24"/>
	<line class="st13" x1="238.29" y1="324.35" x2="227.1" y2="342.93"/>
</g>
</svg>
